<svg width="672" height="610" viewBox="0 0 672 610" fill="none" xmlns="http://www.w3.org/2000/svg">
<path fill-rule="evenodd" clip-rule="evenodd" d="M362.723 94.2263C444.875 78.6101 531.335 -20.8342 595.95 32.2482C660.681 85.4267 582.796 189.788 580.997 273.543C579.618 337.744 617.02 402.113 586.788 458.768C551.826 524.286 488.414 581.334 414.294 585.945C341.677 590.463 277.98 537.637 232.547 480.808C195.598 434.591 207.935 371.948 196.756 313.842C183.523 245.065 119.886 170.592 162.113 114.716C204.243 58.9669 294.075 107.276 362.723 94.2263Z" fill="#E7E6E6" fill-opacity="0.66"/>
<path fill-rule="evenodd" clip-rule="evenodd" d="M328.004 51.2918C376.692 62.0824 427.704 63.7921 467.683 93.6038C512.06 126.695 552.064 171.034 561.692 225.55C571.411 280.577 540.125 331.702 518.861 383.377C495.294 440.649 488.908 519.113 431.419 542.133C373.411 565.36 315.835 508.365 256.634 488.379C209.635 472.512 155.534 472.634 120.761 437.255C86.0452 401.935 82.7078 349.093 72.1682 300.7C60.8188 248.59 38.7259 195.377 57.1831 145.341C76.635 92.6085 119.587 46.6599 172.679 28.2223C223.367 10.6198 275.619 39.6818 328.004 51.2918Z" fill="#96836F" fill-opacity="0.11"/>
</svg>
