<svg width="592" height="600" viewBox="0 0 592 600" fill="none" xmlns="http://www.w3.org/2000/svg">
<path fill-rule="evenodd" clip-rule="evenodd" d="M268.723 84.2263C350.875 68.6102 437.335 -30.8342 501.95 22.2483C566.681 75.4268 488.796 179.788 486.997 263.543C485.618 327.744 523.02 392.113 492.788 448.768C457.826 514.286 394.414 571.334 320.294 575.945C247.677 580.463 183.98 527.637 138.547 470.808C101.598 424.591 113.935 361.948 102.756 303.842C89.5232 235.065 25.8857 160.592 68.1128 104.716C110.243 48.967 200.075 97.2756 268.723 84.2263Z" fill="#E7E6E6" fill-opacity="0.66"/>
<path fill-rule="evenodd" clip-rule="evenodd" d="M328.004 67.2918C376.692 78.0824 427.704 79.7921 467.683 109.604C512.06 142.695 552.064 187.034 561.692 241.55C571.411 296.577 540.125 347.702 518.861 399.377C495.294 456.649 488.908 535.113 431.419 558.133C373.411 581.36 315.835 524.365 256.634 504.379C209.635 488.512 155.534 488.634 120.761 453.255C86.0452 417.935 82.7078 365.093 72.1682 316.7C60.8188 264.59 38.7259 211.377 57.1831 161.341C76.635 108.608 119.587 62.6599 172.679 44.2223C223.367 26.6198 275.619 55.6818 328.004 67.2918Z" fill="#96836F" fill-opacity="0.11"/>
</svg>
